<svg xmlns="http://www.w3.org/2000/svg" viewBox="0 0 982.96 199.52"><defs><style>.cls-1{fill:#f7009f;}</style></defs><g id="Capa_2" data-name="Capa 2"><g id="Capa_1-2" data-name="Capa 1"><path class="cls-1" d="M22.19,199.52a41.19,41.19,0,0,1-5.87-.43c-7.79-1.15-16.74-5.78-16.3-15,.2-4.41,3.14-8.25,9-11.73a43,43,0,0,1,14.54-5.12,72.43,72.43,0,0,1,12.67-1.08,94.87,94.87,0,0,1,19.92,2.24c1.19-1.31,2.26-2.55,3.26-3.78C67.15,155,73,143.87,77.21,135.27c5.62-11.45,10.44-23.17,15.3-35.17L95,94c8.28-20.57,16.85-41.84,29.06-61,6.78-10.65,14.51-21.44,25-28.27A27.41,27.41,0,0,1,163.66,0a17.18,17.18,0,0,1,11,3.7c4.35,3.45,7,9.17,7.58,16.54.58,7.18-.74,15.23-4,24.61-7.68,21.8-22.73,43.17-46,65.34a4.75,4.75,0,0,1-3.33,1.38,5.21,5.21,0,0,1-4.7-3.24,4.65,4.65,0,0,1,1.17-5.16c3-2.88,5.76-5.61,8.36-8.33A185.07,185.07,0,0,0,158.47,63.1c5.85-9.61,9.81-18.42,12.11-26.93,2.06-7.62,2.49-13.71,1.32-18.62a17.2,17.2,0,0,0-.91-2.81,17.55,17.55,0,0,0-1.25-2.14,10,10,0,0,0-1-1l-.4-.35-.14-.09a6.53,6.53,0,0,0-2-1,10.89,10.89,0,0,0-3.06-.45c-7.11,0-14.15,7-18.83,12.22-6.57,7.36-12.76,16.54-19.48,28.91-8.25,15.19-14.81,31.6-21.16,47.48-2.51,6.28-5.1,12.78-7.77,19.11-8.82,21-17.28,39.7-30.52,55.18l7.67,2.66C78,177,82.73,178.59,87.54,180a69.59,69.59,0,0,0,12.5,2.4,117.83,117.83,0,0,0,13.3.86c9.79,0,17.66-1.86,24.08-5.69a4.84,4.84,0,0,1,2.5-.71,5,5,0,0,1,4.69,3.74,4.74,4.74,0,0,1-2.19,5.43A52.46,52.46,0,0,1,119,192.91c-1.75.12-3.6.18-5.49.18A129.48,129.48,0,0,1,98.12,192a82.07,82.07,0,0,1-14.18-2.86c-5.44-1.64-10.87-3.53-16.12-5.35-2.95-1-5.9-2.06-8.86-3.05l-2.76,2.58a74.82,74.82,0,0,1-11.86,9.7,42.3,42.3,0,0,1-22.15,6.46Zm13.93-23.64a57.8,57.8,0,0,0-12.61,1.32,31.11,31.11,0,0,0-10.59,4.25c-3.77,2.52-3.12,3.7-2.72,4.41,1.38,2.48,5.7,3.91,11.84,3.91.85,0,1.65,0,2.35-.08,6.33-.4,12.71-3,19-7.85A67.39,67.39,0,0,0,48.83,177,79.51,79.51,0,0,0,36.12,175.88Z"/><path class="cls-1" d="M234.74,195.22a14.55,14.55,0,0,1-10.65-4.06c-6.28-6.36-5.24-16.61-3.64-24.82.15-.78.31-1.56.49-2.35-2,2.65-4.08,5.34-6.26,7.89a88.74,88.74,0,0,1-17.85,15.82c-7.11,4.75-13.28,7.06-18.85,7.06h0a19.1,19.1,0,0,1-4.62-.56c-7.8-2-12.82-8.95-13.78-19.2-.83-8.89,1.1-18.85,5.74-29.6,8.56-19.81,21.49-35,36.39-42.67a37.71,37.71,0,0,1,17.13-4.38,28.33,28.33,0,0,1,14,3.55A23.77,23.77,0,0,1,243,112.85c1.88-3.08,3.93-6.36,6.06-9.59a4.83,4.83,0,0,1,4.08-2.23,5.19,5.19,0,0,1,4.54,2.66,4.58,4.58,0,0,1-.28,4.75c-3.65,5.55-7.06,11.21-10.81,17.48-7.59,14.93-14.6,29.62-17,45.16a26.88,26.88,0,0,0,0,10,6.85,6.85,0,0,0,1.14,2.76,3.36,3.36,0,0,0,.94.9,5.67,5.67,0,0,0,1.84.63,7.26,7.26,0,0,0,1.06.07,15.42,15.42,0,0,0,7.31-2.18,54,54,0,0,0,8.67-6.85l.23-.22c2.65-2.4,5.76-5.26,8.68-8.26,13.67-14,25-30.47,36-46.37,7.62-11,15.51-22.47,24.15-33.07a4.47,4.47,0,0,1,3.5-1.74A4.93,4.93,0,0,1,327,88.87a5.18,5.18,0,0,1,.86,4.07,5,5,0,0,1-1.14,3.2c-3.5,4.34-3.65,10.16-3.29,15.8a131,131,0,0,0,2.94,20.78c2.51,10.91,5.35,23.28,1.56,35.2-3.43,10.78-11.11,20.05-20,24.18A28.58,28.58,0,0,1,296,194.57a33.91,33.91,0,0,1-7.29-.79c-8.72-1.9-16.28-8-20.74-16.74a4.83,4.83,0,0,1-.39-3.56c-3.24,3.41-6.49,6.58-9.79,9.57-6.2,5.61-13.2,12-22.58,12.17Zm-16-87.08c-8.23,0-16,5.06-21.08,8.86-6.08,4.52-10.88,11.05-14.38,16.24-5.76,8.52-9.62,16.34-11.82,23.92-2.86,9.88-3.12,17.34-.78,22.82a7.67,7.67,0,0,0,7.53,4.85,13.42,13.42,0,0,0,3.94-.63c6.85-2.09,13-7.07,17.6-11.17,5.18-4.62,9.24-9.69,14-15.83a282.12,282.12,0,0,0,18.45-26.47c1.11-1.81,2.2-3.63,3.29-5.45.45-7.94-3.77-14.19-11-16.31A20.33,20.33,0,0,0,218.72,108.14Zm53.74,61.61a4.54,4.54,0,0,1,4.09,2.57c3.82,7.48,10,11.87,17.5,12.36.59,0,1.17,0,1.74,0a18.54,18.54,0,0,0,12.43-4.42,32.42,32.42,0,0,0,11.69-24c.24-7.06-1.25-13.85-2.83-21-.92-4.18-1.87-8.49-2.43-12.86-.41-3.13-.85-6.49-1-9.92-3.48,4.87-6.89,9.81-10.23,14.64-3.61,5.22-7.34,10.62-11.11,15.87a303.39,303.39,0,0,1-21.54,27A4.76,4.76,0,0,1,272.46,169.75Z"/><path class="cls-1" d="M620.79,197.71a22,22,0,0,1-7.31-1.21c-7.56-2.64-12.61-9.64-13.85-19.22a43.57,43.57,0,0,1-.31-7.56,143.6,143.6,0,0,1-19.75,17.54c-4.64,3.36-10.77,7.2-17,7.2a13.68,13.68,0,0,1-8.27-2.71c-7.19-5.29-7.22-15.32-6.62-22.4,1.34-15.65,6.52-31.42,11.27-45,4.64-13.23,10.94-26,17-38.35Q578,81.86,580,77.71c3.52-7.26,7.17-14.76,10.47-22.42,2.77-6.43,5.37-12.74,6.85-19.14l.06-.26c-4.2,1.84-8,5.13-11.81,8.62-10.25,9.37-20.08,21.12-30.94,37-9.16,13.39-17.51,27.71-25.59,41.55l-9.26,15.87c-7.13,12.25-14.51,24.92-22.09,37.21a4.77,4.77,0,0,1-4.13,2.33,5.08,5.08,0,0,1-4-2,4.74,4.74,0,0,1-.77-4.18c5.93-21.47,11.38-44.23,16.64-69.58l1.29-6.12c2.81-13.34,5.72-27.13,6.69-40.77a100.19,100.19,0,0,0-.16-19.43c-.31-2.64-1.16-9.64-4.37-12a5.66,5.66,0,0,0-3.41-.9,22.62,22.62,0,0,0-6.23,1.18,55.9,55.9,0,0,0-15.92,8.39A88.48,88.48,0,0,0,453,71.45a5.16,5.16,0,0,1-8.93,1.07,4.44,4.44,0,0,1-.36-4.21,98.26,98.26,0,0,1,38.41-46.25c6.71-4.22,12.72-6.77,18.35-7.8a28.41,28.41,0,0,1,4.94-.48c4.58,0,8.28,1.42,11,4.21,4.63,4.77,6,11.6,6.7,18.28a112,112,0,0,1,0,21.65c-.45,5.51-1.26,11.39-2.55,18.5-1.91,10.6-4.11,21.81-6.55,33.3-2.37,11.21-4.76,21.81-7.21,32.05,1.78-3,3.55-6.08,5.29-9.07,4.14-7.09,8.27-14.18,12.46-21.24,9-15.28,18.4-31.08,29.28-45.58,9.23-12.3,19.5-25,32.06-34.32,4.12-3.06,9.06-6.23,14.46-6.49h.45a6.28,6.28,0,0,1,5.11,2.26c1.77,2.17,2.17,5.66,1.19,10.38-1.43,6.88-4.19,13.43-6.86,19.76-3.24,7.68-6.78,15.08-10.13,22-1.62,3.36-3.28,6.7-4.93,10.05-5.89,11.91-12,24.21-16.51,36.8-2.95,8.18-5.56,16.67-7.76,25.22a113.24,113.24,0,0,0-3.43,18.24c-.31,3.63-.45,7.45.58,10.84a5.52,5.52,0,0,0,2.71,3.64l.16.07.62.2a2.59,2.59,0,0,0,.91.19h0a10.1,10.1,0,0,0,4.15-1.07c5.06-2.25,9.57-5.93,13.41-9.2a174.83,174.83,0,0,0,23.27-24c.52-1.5,1.08-3,1.66-4.48a87,87,0,0,1,15.58-25.76,67.45,67.45,0,0,1,9.62-9,4.26,4.26,0,0,1,.54-.41,51.42,51.42,0,0,1,8.61-5.24,31.49,31.49,0,0,1,13.51-3.47,20.68,20.68,0,0,1,4.11.4,15.17,15.17,0,0,1,5.05,2.07c5.41,3.51,8.31,9.9,8.87,19.51a77.77,77.77,0,0,1-2.56,23.11c-.17.66-.35,1.33-.54,2,5-.51,10.71-2.75,17-6.68,5.18-3.21,12.42-8.54,17.44-15.67,5.44-7.72,10-16.3,14.44-24.6l1.24-2.32A4.54,4.54,0,0,1,722,97.34a5.1,5.1,0,0,1,4.18,2.33,5,5,0,0,1,.42,4.83l-.88,2C720,120,715.3,131.16,711,141.79c-2.47,6.12-5,12.33-7.15,18.51-1.77,5-5.07,14.43-2,20.53.35.7,1.42,2.81,5.34,2.81a13.91,13.91,0,0,0,4.08-.67c5-1.56,9.48-5.2,12.82-8.21,10.77-9.68,19.45-22,27.22-33.81,5.42-8.26,11-17.47,17.38-28.86a5.82,5.82,0,0,1-.45-.4c-3.68-3.44-5.79-8.76-5.78-14.6s2.12-11.2,5.82-14.66A12.45,12.45,0,0,1,776.53,79a8.76,8.76,0,0,1,6.52,2.75c2.76,2.92,3.71,7.36,2.92,13.57a40.21,40.21,0,0,1-3.56,11.8c3.21.84,6.51,1.73,9.72,2.85l.19.06c3.24,1.12,7.27,2.52,9.46,6.19,1.66,2.81,1.91,6.29.74,10.35-1.23,4.24-3.35,8.06-5.79,12.25l-.94,1.62c-2.51,4.31-5.1,8.76-7.35,13.28-3.11,6.25-6.44,13.67-7.64,21.4a20.9,20.9,0,0,0-.16,5.88,8.44,8.44,0,0,0,.31,1.32l.22.61c.12.24.25.46.39.69l.05.07.46.46.35.16.2.07.25.05.47.1.53,0a14.09,14.09,0,0,0,5.07-1.27c7.34-3.05,13.75-8.6,19.06-13.63a116.19,116.19,0,0,0,18.54-22.49c.6-1.56,1.25-3.15,1.94-4.74,4.85-11.19,10.93-20.15,18.06-26.63C855.15,108,865,103,874.13,101.52a36.51,36.51,0,0,1,5.47-.43,26.39,26.39,0,0,1,15.87,4.84,22.28,22.28,0,0,1,3.83,3.61c1.91-3.54,4-7.4,6.24-11.19a4.66,4.66,0,0,1,4.09-2.41,5.22,5.22,0,0,1,4.46,2.58,4.68,4.68,0,0,1-.06,4.78c-3.11,5.33-6,10.74-8.53,15.35l-.08.19A283.05,283.05,0,0,0,893,147.42a117.26,117.26,0,0,0-5.85,21.31c-.49,3.15-1,7.77,0,11.64a8.88,8.88,0,0,0,.55,1.56c.14.27.29.52.44.78l.26.35a6.38,6.38,0,0,0,.51.53l.13.12c.24.16.48.3.72.43l.12.06a8.72,8.72,0,0,0,3,.52,14.19,14.19,0,0,0,2.67-.27,21.19,21.19,0,0,0,9.14-4.51,96.6,96.6,0,0,0,15.59-16c10.18-12.67,18.47-27,26.49-40.93,7.77-13.47,15.81-27.39,25.62-39.92A4.44,4.44,0,0,1,976,81.3a4.79,4.79,0,0,1,3.6,1.75,5.27,5.27,0,0,1,1.29,3.65,4.36,4.36,0,0,1-.79,3.5c-2.7,3.49-3.15,8.79-3.36,13.48a108.31,108.31,0,0,0,.8,17c.53,4.66,1.51,9.38,2.45,13.94,1.69,8.1,3.44,16.49,2.81,25.19-.92,12.67-6.7,24.19-15.47,30.82a26.18,26.18,0,0,1-15.94,5.09h0a32.58,32.58,0,0,1-5-.4c-9.37-1.45-17.4-7.7-22-17.14A5,5,0,0,1,924,175c-1.18,1.35-2.4,2.68-3.64,4-6,6.25-12.52,12.53-20.85,14.72a25.23,25.23,0,0,1-6.4.86,16,16,0,0,1-10.31-3.35c-7.7-6.33-6.32-18.39-5-25.4-4.49,6.48-9.28,13-15.72,18.49-4.75,4-12,9.4-20.17,9.4a17.78,17.78,0,0,1-4.49-.58c-7.76-2-13.49-8.87-15-17.86a37.69,37.69,0,0,1-.48-5.71,112.24,112.24,0,0,1-18.78,16.92c-5.59,4-12.22,8-18.94,8-.52,0-1,0-1.56-.08a11.83,11.83,0,0,1-9.17-5.15c-4.7-7-2-18.54-.56-23.18,3.23-10.75,8.62-20.62,13-28,.5-.86,1-1.73,1.55-2.6,2.15-3.57,4.38-7.25,5.58-11.09.74-2.39.47-3,.14-3.27a12.78,12.78,0,0,0-4-1.73L788,119c-2.39-.78-4.78-1.44-6.81-2l-2.18-.55-1.3-.31-.72,1.28c-8.09,14.4-15.17,25.86-22.3,36.09-8.77,12.6-18.42,25.63-31.31,34.28-5.63,3.78-11.07,5.7-16.18,5.7a19.24,19.24,0,0,1-2.28-.13c-7.5-.86-12.78-6.65-13.76-15.09-1.08-9.28,2.45-18.65,5-25.5,1.11-2.93,2.24-5.85,3.43-8.86a74.2,74.2,0,0,1-15.56,10.21c-6.75,3.28-13.07,4.94-18.78,4.94l-1.19,0a94.69,94.69,0,0,1-4.73,9C653.48,178,647.14,185.36,640,190.7,633.88,195.22,627.07,197.71,620.79,197.71Zm9.07-73.17a63.91,63.91,0,0,0-5.52,6.45,81.2,81.2,0,0,0-12.26,24.17c-3.22,10.11-3.88,17.8-2.07,24.19,1.55,5.48,5.42,8.5,10.9,8.5,6.05,0,12.42-3.39,18.94-10.07a76.76,76.76,0,0,0,14.56-21.13C642.17,151.09,633.1,139.17,629.86,124.54ZM929,170.92a4.52,4.52,0,0,1,4.09,2.62c3.86,7.87,10.54,12.38,18.31,12.38,6.35,0,11.12-2.69,15.16-8.31,5.6-7.8,7.67-17.79,6.14-29.69a97.59,97.59,0,0,0-2-9.86c-.63-2.72-1.29-5.53-1.76-8.38A160.64,160.64,0,0,1,967,112.41c-.07-1.37-.12-2.69-.13-4-3.7,6-7.23,12.07-10.67,18-2.06,3.56-4.11,7.12-6.2,10.65-6.82,11.51-14.15,23.48-22.94,34.19A4.85,4.85,0,0,1,929,170.92Zm-49.21-60.06a30.5,30.5,0,0,0-11.3,2.43c-15.74,6.41-28.29,21.9-34.43,42.51-2,6.61-4.13,16.2-.13,23.11a9.12,9.12,0,0,0,8.13,4.8,11.75,11.75,0,0,0,4.39-.89c7.24-2.93,13.2-9.38,17.06-14a84.73,84.73,0,0,0,5.27-7.27l1.54-2.28.15-.21c3.11-4.53,6.33-9.21,9.25-13.94,5.1-8.25,9.62-16.77,14-25-.25-2.86-2.46-5.66-5.88-7.44A17.28,17.28,0,0,0,879.74,110.86Zm-241.13,6.38c.84,9.3,4.35,17.38,10.2,23.43a32.83,32.83,0,0,0,9.13,6.82,68.69,68.69,0,0,0,1.73-6.81c1.49-7.49,1.85-13.73,1.1-19.06-1.2-8.48-4.95-9.33-6.18-9.61a9.39,9.39,0,0,0-1.78-.15c-4.25,0-8.94,2.27-11.36,3.62C640.54,116,639.61,116.57,638.61,117.24ZM776.07,88.88a3.86,3.86,0,0,0-1.63,1.37,12.52,12.52,0,0,0-1.66,10.37,10.1,10.1,0,0,0,.9,2.23c2-4.21,3.37-8.6,2.62-13A6.12,6.12,0,0,0,776.07,88.88Z"/><path class="cls-1" d="M390.65,199.52c-1.28,0-2.58-.06-3.88-.17-7.21-.6-13.28-2.84-18-6.66s-8.43-9.62-10.86-17.41a4.6,4.6,0,0,1,.65-4.19,5.09,5.09,0,0,1,4.11-2,4.81,4.81,0,0,1,4.67,3.44c2.17,7,5.47,11.63,10.11,14.25a26.78,26.78,0,0,0,13.09,3,38.73,38.73,0,0,0,4.41-.25c4.68-.53,9.67-2.55,15.71-6.35A100.68,100.68,0,0,0,426.93,170a181.07,181.07,0,0,0,25.67-31.1c8-12.31,15.23-25.47,21.33-36.84C481,88.84,488.21,74.75,495.28,60.2a4.5,4.5,0,0,1,4.08-2.63A5.26,5.26,0,0,1,503.71,60a4.86,4.86,0,0,1,.23,4.8c-8.76,18-17.11,34.23-25.55,49.61-16,29.12-31.06,52.16-52.84,70-6.83,5.58-12.84,9.37-18.92,11.93a41,41,0,0,1-16,3.18Z"/><path class="cls-1" d="M736.48,75a8.23,8.23,0,0,1-2.14-.29A6.9,6.9,0,0,1,729.81,70a11.9,11.9,0,0,1,2-10.87,10.55,10.55,0,0,1,7.8-4.07,6.46,6.46,0,0,1,2.64.54A7.83,7.83,0,0,1,746.58,60a9.92,9.92,0,0,1-.32,7.44C744.69,71,741.19,75,736.48,75Z"/></g></g></svg>